<svg xmlns="http://www.w3.org/2000/svg" xmlns:xlink="http://www.w3.org/1999/xlink" width="1604px" height="1097px" version="1.1"><defs/><g transform="translate(0.5,0.5)"><rect x="1104" y="888" width="80" height="40" fill="#ffffff" stroke="none" pointer-events="none"/><g fill="#000000" font-family="Helvetica" text-anchor="middle" font-size="12px"><text x="1144" y="912">drive(t1,ral,ny)</text></g><rect x="1105" y="796" width="80" height="40" fill="#ffffff" stroke="none" pointer-events="none"/><g fill="#000000" font-family="Helvetica" text-anchor="middle" font-size="12px"><text x="1145" y="820">drive(t1,ny,ral)</text></g><rect x="1136" y="613" width="80" height="40" fill="#ffffff" stroke="none" pointer-events="none"/><g fill="#000000" font-family="Helvetica" text-anchor="middle" font-size="12px"><text x="1176" y="637">unload(c1,t1,ral)</text></g><rect x="1478" y="624" width="80" height="40" fill="#ffffff" stroke="none" pointer-events="none"/><g fill="#000000" font-family="Helvetica" text-anchor="middle" font-size="12px"><text x="1518" y="648">sit(c1,ral)</text></g><rect x="1106" y="43" width="80" height="40" fill="#ffffff" stroke="none" pointer-events="none"/><g fill="#000000" font-family="Helvetica" text-anchor="middle" font-size="12px"><text x="1146" y="67">unload(c1,t1,ny)</text></g><rect x="1523" y="947" width="80" height="40" fill="#ffffff" stroke="none" pointer-events="none"/><g fill="#000000" font-family="Helvetica" text-anchor="middle" font-size="12px"><text x="1563" y="971">~in(c1, t1)</text></g><rect x="1473" y="1036" width="80" height="40" fill="#ffffff" stroke="none" pointer-events="none"/><g fill="#000000" font-family="Helvetica" text-anchor="middle" font-size="12px"><text x="1513" y="1060">~sit(c1,ral)</text></g><rect x="1473" y="984" width="80" height="40" fill="#ffffff" stroke="none" pointer-events="none"/><g fill="#000000" font-family="Helvetica" text-anchor="middle" font-size="12px"><text x="1513" y="1008">~at(t1,ral)</text></g><rect x="1473" y="487" width="80" height="40" fill="#ffffff" stroke="none" pointer-events="none"/><g fill="#000000" font-family="Helvetica" text-anchor="middle" font-size="12px"><text x="1513" y="511">at(t1,ral)</text></g><rect x="1473" y="423" width="80" height="40" fill="#ffffff" stroke="none" pointer-events="none"/><g fill="#000000" font-family="Helvetica" text-anchor="middle" font-size="12px"><text x="1513" y="447">sit(c1,ny)</text></g><rect x="1493" y="302" width="80" height="40" fill="#ffffff" stroke="none" pointer-events="none"/><g fill="#000000" font-family="Helvetica" text-anchor="middle" font-size="12px"><text x="1533" y="326">sit(c1,ny)</text></g><rect x="1473" y="247" width="80" height="40" fill="#ffffff" stroke="none" pointer-events="none"/><g fill="#000000" font-family="Helvetica" text-anchor="middle" font-size="12px"><text x="1513" y="271">at(t1,ny)</text></g><rect x="1477" y="108" width="80" height="40" fill="#ffffff" stroke="none" pointer-events="none"/><g fill="#000000" font-family="Helvetica" text-anchor="middle" font-size="12px"><text x="1517" y="132">in(c1,t1)</text></g><rect x="725" y="557" width="80" height="40" fill="#ffffff" stroke="none" pointer-events="none"/><g fill="#000000" font-family="Helvetica" text-anchor="middle" font-size="12px"><text x="765" y="581">~at(t1,ny)</text></g><rect x="725" y="487" width="80" height="40" fill="#ffffff" stroke="none" pointer-events="none"/><g fill="#000000" font-family="Helvetica" text-anchor="middle" font-size="12px"><text x="765" y="511">at(t1,ral)</text></g><rect x="365" y="503" width="80" height="40" fill="#ffffff" stroke="none" pointer-events="none"/><g fill="#000000" font-family="Helvetica" text-anchor="middle" font-size="12px"><text x="405" y="527">drive(t1,ny,ral)</text></g><rect x="726" y="112" width="80" height="40" fill="#ffffff" stroke="none" pointer-events="none"/><g fill="#000000" font-family="Helvetica" text-anchor="middle" font-size="12px"><text x="766" y="136">in(c1,t1)</text></g><rect x="726" y="182" width="80" height="40" fill="#ffffff" stroke="none" pointer-events="none"/><g fill="#000000" font-family="Helvetica" text-anchor="middle" font-size="12px"><text x="766" y="206">~sit(c1,ny)</text></g><rect x="355" y="173" width="80" height="40" fill="#ffffff" stroke="none" pointer-events="none"/><g fill="#000000" font-family="Helvetica" text-anchor="middle" font-size="12px"><text x="395" y="197">load(c1,t1,ny)</text></g><rect x="723" y="933" width="80" height="40" fill="#ffffff" stroke="none" pointer-events="none"/><g fill="#000000" font-family="Helvetica" text-anchor="middle" font-size="12px"><text x="763" y="957">~in(c1, t1)</text></g><rect x="723" y="1042" width="80" height="40" fill="#ffffff" stroke="none" pointer-events="none"/><g fill="#000000" font-family="Helvetica" text-anchor="middle" font-size="12px"><text x="763" y="1066">~sit(c1,ral)</text></g><rect x="723" y="987" width="80" height="40" fill="#ffffff" stroke="none" pointer-events="none"/><g fill="#000000" font-family="Helvetica" text-anchor="middle" font-size="12px"><text x="763" y="1011">~at(t1,ral)</text></g><rect x="725" y="687" width="80" height="40" fill="#ffffff" stroke="none" pointer-events="none"/><g fill="#000000" font-family="Helvetica" text-anchor="middle" font-size="12px"><text x="765" y="711">city(ral)</text></g><rect x="723" y="247" width="80" height="40" fill="#ffffff" stroke="none" pointer-events="none"/><g fill="#000000" font-family="Helvetica" text-anchor="middle" font-size="12px"><text x="763" y="271">at(t1,ny)</text></g><rect x="724" y="305" width="80" height="40" fill="#ffffff" stroke="none" pointer-events="none"/><g fill="#000000" font-family="Helvetica" text-anchor="middle" font-size="12px"><text x="764" y="329">sit(c1,ny)</text></g><rect x="725" y="407" width="80" height="40" fill="#ffffff" stroke="none" pointer-events="none"/><g fill="#000000" font-family="Helvetica" text-anchor="middle" font-size="12px"><text x="765" y="431">city(ny)</text></g><rect x="55" y="3" width="80" height="40" fill="none" stroke="none" pointer-events="none"/><g fill="#000000" font-family="Helvetica" text-anchor="middle" font-size="12px"><text x="95" y="27">S1</text></g><ellipse cx="95" cy="288" rx="5" ry="5" fill="#080808" stroke="#000000" pointer-events="none"/><ellipse cx="95" cy="348" rx="5" ry="5" fill="#080808" stroke="#000000" pointer-events="none"/><ellipse cx="95" cy="468" rx="5" ry="5" fill="#080808" stroke="#000000" pointer-events="none"/><ellipse cx="95" cy="728" rx="5" ry="5" fill="#080808" stroke="#000000" pointer-events="none"/><ellipse cx="95" cy="1029" rx="5" ry="5" fill="#080808" stroke="#000000" pointer-events="none"/><rect x="5" y="263" width="80" height="40" fill="#ffffff" stroke="none" pointer-events="none"/><g fill="#000000" font-family="Helvetica" text-anchor="middle" font-size="12px"><text x="45" y="287">at(t1,ny)</text></g><rect x="5" y="323" width="80" height="40" fill="#ffffff" stroke="none" pointer-events="none"/><g fill="#000000" font-family="Helvetica" text-anchor="middle" font-size="12px"><text x="45" y="347">sit(c1,ny)</text></g><rect x="5" y="447" width="80" height="40" fill="#ffffff" stroke="none" pointer-events="none"/><g fill="#000000" font-family="Helvetica" text-anchor="middle" font-size="12px"><text x="45" y="471">city(ny)</text></g><rect x="5" y="707" width="80" height="40" fill="#ffffff" stroke="none" pointer-events="none"/><g fill="#000000" font-family="Helvetica" text-anchor="middle" font-size="12px"><text x="45" y="731">city(ral)</text></g><rect x="3" y="1007" width="80" height="40" fill="#ffffff" stroke="none" pointer-events="none"/><g fill="#000000" font-family="Helvetica" text-anchor="middle" font-size="12px"><text x="43" y="1031">~at(t1,ral)</text></g><ellipse cx="95" cy="1079" rx="5" ry="5" fill="#080808" stroke="#000000" pointer-events="none"/><rect x="3" y="1057" width="80" height="40" fill="#ffffff" stroke="none" pointer-events="none"/><g fill="#000000" font-family="Helvetica" text-anchor="middle" font-size="12px"><text x="43" y="1081">~sit(c1,ral)</text></g><ellipse cx="95" cy="969" rx="5" ry="5" fill="#080808" stroke="#000000" pointer-events="none"/><rect x="3" y="947" width="80" height="40" fill="#ffffff" stroke="none" pointer-events="none"/><g fill="#000000" font-family="Helvetica" text-anchor="middle" font-size="12px"><text x="43" y="971">~in(c1, t1)</text></g><rect x="365" y="4" width="80" height="40" fill="#ffffff" stroke="none" pointer-events="none"/><g fill="#000000" font-family="Helvetica" text-anchor="middle" font-size="12px"><text x="405" y="28">A1</text></g><ellipse cx="775" cy="288" rx="5" ry="5" fill="#080808" stroke="#000000" pointer-events="none"/><ellipse cx="775" cy="348" rx="5" ry="5" fill="#080808" stroke="#000000" pointer-events="none"/><ellipse cx="775" cy="468" rx="5" ry="5" fill="#080808" stroke="#000000" pointer-events="none"/><ellipse cx="775" cy="728" rx="5" ry="5" fill="#080808" stroke="#000000" pointer-events="none"/><ellipse cx="775" cy="1029" rx="5" ry="5" fill="#080808" stroke="#000000" pointer-events="none"/><ellipse cx="775" cy="1079" rx="5" ry="5" fill="#080808" stroke="#000000" pointer-events="none"/><ellipse cx="775" cy="969" rx="5" ry="5" fill="#080808" stroke="#000000" pointer-events="none"/><rect x="725" y="3" width="80" height="40" fill="none" stroke="none" pointer-events="none"/><g fill="#000000" font-family="Helvetica" text-anchor="middle" font-size="12px"><text x="765" y="27">S2</text></g><ellipse cx="405" cy="288" rx="5" ry="5" fill="#ffffff" stroke="#000000" pointer-events="none"/><ellipse cx="405" cy="348" rx="5" ry="5" fill="#ffffff" stroke="#000000" pointer-events="none"/><ellipse cx="405" cy="468" rx="5" ry="5" fill="#ffffff" stroke="#000000" pointer-events="none"/><ellipse cx="405" cy="728" rx="5" ry="5" fill="#ffffff" stroke="#000000" pointer-events="none"/><ellipse cx="405" cy="1028" rx="5" ry="5" fill="#ffffff" stroke="#000000" pointer-events="none"/><ellipse cx="405" cy="1078" rx="5" ry="5" fill="#ffffff" stroke="#000000" pointer-events="none"/><ellipse cx="405" cy="968" rx="5" ry="5" fill="#ffffff" stroke="#000000" pointer-events="none"/><path d="M 99 287 L 395 287" fill="none" stroke="#000000" stroke-miterlimit="10" pointer-events="none"/><path d="M 400 287 L 393 291 L 395 287 L 393 284 Z" fill="#000000" stroke="#000000" stroke-miterlimit="10" pointer-events="none"/><path d="M 409 288 L 765 288" fill="none" stroke="#000000" stroke-miterlimit="10" pointer-events="none"/><path d="M 770 288 L 763 292 L 765 288 L 763 285 Z" fill="#000000" stroke="#000000" stroke-miterlimit="10" pointer-events="none"/><path d="M 99 348 L 395 348" fill="none" stroke="#000000" stroke-miterlimit="10" pointer-events="none"/><path d="M 400 348 L 393 352 L 395 348 L 393 345 Z" fill="#000000" stroke="#000000" stroke-miterlimit="10" pointer-events="none"/><path d="M 99 469 L 395 468" fill="none" stroke="#000000" stroke-miterlimit="10" pointer-events="none"/><path d="M 400 468 L 393 472 L 395 468 L 393 465 Z" fill="#000000" stroke="#000000" stroke-miterlimit="10" pointer-events="none"/><path d="M 100 728 L 396 727" fill="none" stroke="#000000" stroke-miterlimit="10" pointer-events="none"/><path d="M 401 727 L 394 731 L 396 727 L 394 724 Z" fill="#000000" stroke="#000000" stroke-miterlimit="10" pointer-events="none"/><path d="M 100 1029 L 396 1028" fill="none" stroke="#000000" stroke-miterlimit="10" pointer-events="none"/><path d="M 401 1028 L 394 1032 L 396 1028 L 394 1025 Z" fill="#000000" stroke="#000000" stroke-miterlimit="10" pointer-events="none"/><path d="M 100 1079 L 396 1078" fill="none" stroke="#000000" stroke-miterlimit="10" pointer-events="none"/><path d="M 401 1078 L 394 1082 L 396 1078 L 394 1075 Z" fill="#000000" stroke="#000000" stroke-miterlimit="10" pointer-events="none"/><path d="M 100 969 L 396 968" fill="none" stroke="#000000" stroke-miterlimit="10" pointer-events="none"/><path d="M 401 968 L 394 972 L 396 968 L 394 965 Z" fill="#000000" stroke="#000000" stroke-miterlimit="10" pointer-events="none"/><path d="M 409 348 L 765 348" fill="none" stroke="#000000" stroke-miterlimit="10" pointer-events="none"/><path d="M 770 348 L 763 352 L 765 348 L 763 345 Z" fill="#000000" stroke="#000000" stroke-miterlimit="10" pointer-events="none"/><path d="M 409 468 L 765 468" fill="none" stroke="#000000" stroke-miterlimit="10" pointer-events="none"/><path d="M 770 468 L 763 472 L 765 468 L 763 465 Z" fill="#000000" stroke="#000000" stroke-miterlimit="10" pointer-events="none"/><path d="M 409 728 L 765 728" fill="none" stroke="#000000" stroke-miterlimit="10" pointer-events="none"/><path d="M 770 728 L 763 732 L 765 728 L 763 725 Z" fill="#000000" stroke="#000000" stroke-miterlimit="10" pointer-events="none"/><path d="M 409 1028 L 765 1028" fill="none" stroke="#000000" stroke-miterlimit="10" pointer-events="none"/><path d="M 770 1028 L 763 1032 L 765 1028 L 763 1025 Z" fill="#000000" stroke="#000000" stroke-miterlimit="10" pointer-events="none"/><path d="M 409 1078 L 765 1078" fill="none" stroke="#000000" stroke-miterlimit="10" pointer-events="none"/><path d="M 770 1078 L 763 1082 L 765 1078 L 763 1075 Z" fill="#000000" stroke="#000000" stroke-miterlimit="10" pointer-events="none"/><path d="M 409 968 L 765 968" fill="none" stroke="#000000" stroke-miterlimit="10" pointer-events="none"/><path d="M 770 968 L 763 972 L 765 968 L 763 965 Z" fill="#000000" stroke="#000000" stroke-miterlimit="10" pointer-events="none"/><ellipse cx="405" cy="218" rx="5" ry="5" fill="#080808" stroke="#000000" pointer-events="none"/><path d="M 99 284 L 395 216" fill="none" stroke="#000000" stroke-miterlimit="10" pointer-events="none"/><path d="M 400 215 L 394 220 L 395 216 L 393 213 Z" fill="#000000" stroke="#000000" stroke-miterlimit="10" pointer-events="none"/><path d="M 99 344 L 396 224" fill="none" stroke="#000000" stroke-miterlimit="10" pointer-events="none"/><path d="M 400 222 L 395 228 L 396 224 L 393 222 Z" fill="#000000" stroke="#000000" stroke-miterlimit="10" pointer-events="none"/><ellipse cx="775" cy="218" rx="5" ry="5" fill="#080808" stroke="#000000" pointer-events="none"/><ellipse cx="775" cy="148" rx="5" ry="5" fill="#080808" stroke="#000000" pointer-events="none"/><path d="M 409 222 L 765 222" fill="none" stroke="#000000" stroke-miterlimit="10" pointer-events="none"/><path d="M 770 222 L 763 226 L 765 222 L 763 219 Z" fill="#000000" stroke="#000000" stroke-miterlimit="10" pointer-events="none"/><path d="M 409 215 L 765 153" fill="none" stroke="#000000" stroke-miterlimit="10" pointer-events="none"/><path d="M 770 152 L 764 157 L 765 153 L 763 150 Z" fill="#000000" stroke="#000000" stroke-miterlimit="10" pointer-events="none"/><rect x="1105" y="3" width="80" height="40" fill="#ffffff" stroke="none" pointer-events="none"/><g fill="#000000" font-family="Helvetica" text-anchor="middle" font-size="12px"><text x="1145" y="27">A2</text></g><rect x="1480" y="3" width="80" height="40" fill="#ffffff" stroke="none" pointer-events="none"/><g fill="#000000" font-family="Helvetica" text-anchor="middle" font-size="12px"><text x="1520" y="27">S3</text></g><ellipse cx="405" cy="569" rx="5" ry="5" fill="#080808" stroke="#000000" pointer-events="none"/><ellipse cx="775" cy="599" rx="5" ry="5" fill="#080808" stroke="#000000" pointer-events="none"/><ellipse cx="775" cy="529" rx="5" ry="5" fill="#080808" stroke="#000000" pointer-events="none"/><path d="M 99 291 L 397 561" fill="none" stroke="#000000" stroke-miterlimit="10" pointer-events="none"/><path d="M 401 564 L 393 562 L 397 561 L 398 557 Z" fill="#000000" stroke="#000000" stroke-miterlimit="10" pointer-events="none"/><path d="M 99 471 L 395 563" fill="none" stroke="#000000" stroke-miterlimit="10" pointer-events="none"/><path d="M 400 565 L 393 566 L 395 563 L 395 559 Z" fill="#000000" stroke="#000000" stroke-miterlimit="10" pointer-events="none"/><path d="M 99 724 L 396 575" fill="none" stroke="#000000" stroke-miterlimit="10" pointer-events="none"/><path d="M 400 573 L 396 579 L 396 575 L 393 573 Z" fill="#000000" stroke="#000000" stroke-miterlimit="10" pointer-events="none"/><path d="M 409 565 L 765 526" fill="none" stroke="#000000" stroke-miterlimit="10" pointer-events="none"/><path d="M 770 525 L 764 529 L 765 526 L 763 522 Z" fill="#000000" stroke="#000000" stroke-miterlimit="10" pointer-events="none"/><path d="M 409 572 L 765 595" fill="none" stroke="#000000" stroke-miterlimit="10" pointer-events="none"/><path d="M 770 595 L 763 598 L 765 595 L 764 591 Z" fill="#000000" stroke="#000000" stroke-miterlimit="10" pointer-events="none"/><ellipse cx="1147" cy="148" rx="5" ry="5" fill="#ffffff" stroke="#000000" pointer-events="none"/><ellipse cx="1147" cy="218" rx="5" ry="5" fill="#ffffff" stroke="#000000" pointer-events="none"/><path d="M 781 148 L 1137 148" fill="none" stroke="#000000" stroke-miterlimit="10" pointer-events="none"/><path d="M 1142 148 L 1135 152 L 1137 148 L 1135 145 Z" fill="#000000" stroke="#000000" stroke-miterlimit="10" pointer-events="none"/><path d="M 1151 147 L 1507 147" fill="none" stroke="#000000" stroke-miterlimit="10" pointer-events="none"/><path d="M 1512 147 L 1505 151 L 1507 147 L 1505 144 Z" fill="#000000" stroke="#000000" stroke-miterlimit="10" pointer-events="none"/><ellipse cx="1518" cy="147" rx="5" ry="5" fill="#080808" stroke="#000000" pointer-events="none"/><rect x="1477" y="178" width="80" height="40" fill="#ffffff" stroke="none" pointer-events="none"/><g fill="#000000" font-family="Helvetica" text-anchor="middle" font-size="12px"><text x="1517" y="202">~sit(c1,ny)</text></g><path d="M 781 218 L 1137 218" fill="none" stroke="#000000" stroke-miterlimit="10" pointer-events="none"/><path d="M 1142 218 L 1135 222 L 1137 218 L 1135 215 Z" fill="#000000" stroke="#000000" stroke-miterlimit="10" pointer-events="none"/><path d="M 1151 217 L 1507 217" fill="none" stroke="#000000" stroke-miterlimit="10" pointer-events="none"/><path d="M 1512 217 L 1505 221 L 1507 217 L 1505 214 Z" fill="#000000" stroke="#000000" stroke-miterlimit="10" pointer-events="none"/><ellipse cx="1518" cy="217" rx="5" ry="5" fill="#080808" stroke="#000000" pointer-events="none"/><ellipse cx="1147" cy="288" rx="5" ry="5" fill="#ffffff" stroke="#000000" pointer-events="none"/><path d="M 781 287 L 1137 287" fill="none" stroke="#000000" stroke-miterlimit="10" pointer-events="none"/><path d="M 1142 287 L 1135 291 L 1137 287 L 1135 284 Z" fill="#000000" stroke="#000000" stroke-miterlimit="10" pointer-events="none"/><path d="M 1151 286 L 1507 286" fill="none" stroke="#000000" stroke-miterlimit="10" pointer-events="none"/><path d="M 1512 286 L 1505 290 L 1507 286 L 1505 283 Z" fill="#000000" stroke="#000000" stroke-miterlimit="10" pointer-events="none"/><ellipse cx="1518" cy="286" rx="5" ry="5" fill="#080808" stroke="#000000" pointer-events="none"/><ellipse cx="1147" cy="347" rx="5" ry="5" fill="#ffffff" stroke="#000000" pointer-events="none"/><path d="M 781 346 L 1137 346" fill="none" stroke="#000000" stroke-miterlimit="10" pointer-events="none"/><path d="M 1142 346 L 1135 350 L 1137 346 L 1135 343 Z" fill="#000000" stroke="#000000" stroke-miterlimit="10" pointer-events="none"/><path d="M 1151 345 L 1507 345" fill="none" stroke="#000000" stroke-miterlimit="10" pointer-events="none"/><path d="M 1512 345 L 1505 349 L 1507 345 L 1505 342 Z" fill="#000000" stroke="#000000" stroke-miterlimit="10" pointer-events="none"/><ellipse cx="1518" cy="345" rx="5" ry="5" fill="#080808" stroke="#000000" pointer-events="none"/><ellipse cx="1147" cy="468" rx="5" ry="5" fill="#ffffff" stroke="#000000" pointer-events="none"/><path d="M 781 467 L 1137 467" fill="none" stroke="#000000" stroke-miterlimit="10" pointer-events="none"/><path d="M 1142 467 L 1135 471 L 1137 467 L 1135 464 Z" fill="#000000" stroke="#000000" stroke-miterlimit="10" pointer-events="none"/><path d="M 1151 466 L 1507 466" fill="none" stroke="#000000" stroke-miterlimit="10" pointer-events="none"/><path d="M 1512 466 L 1505 470 L 1507 466 L 1505 463 Z" fill="#000000" stroke="#000000" stroke-miterlimit="10" pointer-events="none"/><ellipse cx="1518" cy="466" rx="5" ry="5" fill="#080808" stroke="#000000" pointer-events="none"/><ellipse cx="1147" cy="530" rx="5" ry="5" fill="#ffffff" stroke="#000000" pointer-events="none"/><path d="M 781 529 L 1137 529" fill="none" stroke="#000000" stroke-miterlimit="10" pointer-events="none"/><path d="M 1142 529 L 1135 533 L 1137 529 L 1135 526 Z" fill="#000000" stroke="#000000" stroke-miterlimit="10" pointer-events="none"/><path d="M 1151 528 L 1507 528" fill="none" stroke="#000000" stroke-miterlimit="10" pointer-events="none"/><path d="M 1512 528 L 1505 532 L 1507 528 L 1505 525 Z" fill="#000000" stroke="#000000" stroke-miterlimit="10" pointer-events="none"/><ellipse cx="1518" cy="528" rx="5" ry="5" fill="#080808" stroke="#000000" pointer-events="none"/><ellipse cx="1147" cy="600" rx="5" ry="5" fill="#ffffff" stroke="#000000" pointer-events="none"/><path d="M 781 599 L 1137 599" fill="none" stroke="#000000" stroke-miterlimit="10" pointer-events="none"/><path d="M 1142 599 L 1135 603 L 1137 599 L 1135 596 Z" fill="#000000" stroke="#000000" stroke-miterlimit="10" pointer-events="none"/><path d="M 1151 598 L 1507 598" fill="none" stroke="#000000" stroke-miterlimit="10" pointer-events="none"/><path d="M 1512 598 L 1505 602 L 1507 598 L 1505 595 Z" fill="#000000" stroke="#000000" stroke-miterlimit="10" pointer-events="none"/><ellipse cx="1518" cy="598" rx="5" ry="5" fill="#080808" stroke="#000000" pointer-events="none"/><ellipse cx="1147" cy="728" rx="5" ry="5" fill="#ffffff" stroke="#000000" pointer-events="none"/><path d="M 781 727 L 1137 727" fill="none" stroke="#000000" stroke-miterlimit="10" pointer-events="none"/><path d="M 1142 727 L 1135 731 L 1137 727 L 1135 724 Z" fill="#000000" stroke="#000000" stroke-miterlimit="10" pointer-events="none"/><path d="M 1151 726 L 1507 726" fill="none" stroke="#000000" stroke-miterlimit="10" pointer-events="none"/><path d="M 1512 726 L 1505 730 L 1507 726 L 1505 723 Z" fill="#000000" stroke="#000000" stroke-miterlimit="10" pointer-events="none"/><ellipse cx="1518" cy="726" rx="5" ry="5" fill="#080808" stroke="#000000" pointer-events="none"/><ellipse cx="1147" cy="1028" rx="5" ry="5" fill="#ffffff" stroke="#000000" pointer-events="none"/><path d="M 781 1027 L 1137 1027" fill="none" stroke="#000000" stroke-miterlimit="10" pointer-events="none"/><path d="M 1142 1027 L 1135 1031 L 1137 1027 L 1135 1024 Z" fill="#000000" stroke="#000000" stroke-miterlimit="10" pointer-events="none"/><path d="M 1151 1026 L 1507 1026" fill="none" stroke="#000000" stroke-miterlimit="10" pointer-events="none"/><path d="M 1512 1026 L 1505 1030 L 1507 1026 L 1505 1023 Z" fill="#000000" stroke="#000000" stroke-miterlimit="10" pointer-events="none"/><ellipse cx="1518" cy="1026" rx="5" ry="5" fill="#080808" stroke="#000000" pointer-events="none"/><ellipse cx="1147" cy="1079" rx="5" ry="5" fill="#ffffff" stroke="#000000" pointer-events="none"/><path d="M 781 1078 L 1137 1078" fill="none" stroke="#000000" stroke-miterlimit="10" pointer-events="none"/><path d="M 1142 1078 L 1135 1082 L 1137 1078 L 1135 1075 Z" fill="#000000" stroke="#000000" stroke-miterlimit="10" pointer-events="none"/><path d="M 1151 1077 L 1507 1077" fill="none" stroke="#000000" stroke-miterlimit="10" pointer-events="none"/><path d="M 1512 1077 L 1505 1081 L 1507 1077 L 1505 1074 Z" fill="#000000" stroke="#000000" stroke-miterlimit="10" pointer-events="none"/><ellipse cx="1518" cy="1077" rx="5" ry="5" fill="#080808" stroke="#000000" pointer-events="none"/><ellipse cx="1147" cy="969" rx="5" ry="5" fill="#ffffff" stroke="#000000" pointer-events="none"/><path d="M 781 968 L 1137 968" fill="none" stroke="#000000" stroke-miterlimit="10" pointer-events="none"/><path d="M 1142 968 L 1135 972 L 1137 968 L 1135 965 Z" fill="#000000" stroke="#000000" stroke-miterlimit="10" pointer-events="none"/><path d="M 1151 967 L 1507 967" fill="none" stroke="#000000" stroke-miterlimit="10" pointer-events="none"/><path d="M 1512 967 L 1505 971 L 1507 967 L 1505 964 Z" fill="#000000" stroke="#000000" stroke-miterlimit="10" pointer-events="none"/><ellipse cx="1518" cy="967" rx="5" ry="5" fill="#080808" stroke="#000000" pointer-events="none"/><rect x="1473" y="554" width="80" height="40" fill="#ffffff" stroke="none" pointer-events="none"/><g fill="#000000" font-family="Helvetica" text-anchor="middle" font-size="12px"><text x="1513" y="578">~at(t1,ny)</text></g><rect x="1473" y="681" width="80" height="40" fill="#ffffff" stroke="none" pointer-events="none"/><g fill="#000000" font-family="Helvetica" text-anchor="middle" font-size="12px"><text x="1513" y="705">city(ral)</text></g><ellipse cx="1144" cy="418" rx="5" ry="5" fill="#080808" stroke="#000000" pointer-events="none"/><rect x="1096" y="371" width="80" height="40" fill="#ffffff" stroke="none" pointer-events="none"/><g fill="#000000" font-family="Helvetica" text-anchor="middle" font-size="12px"><text x="1136" y="395">load(c1,t1,ny)</text></g><path d="M 779 284 L 1135 419" fill="none" stroke="#000000" stroke-miterlimit="10" pointer-events="none"/><path d="M 1139 421 L 1132 421 L 1135 419 L 1134 415 Z" fill="#000000" stroke="#000000" stroke-miterlimit="10" pointer-events="none"/><path d="M 779 344 L 1134 420" fill="none" stroke="#000000" stroke-miterlimit="10" pointer-events="none"/><path d="M 1139 421 L 1132 423 L 1134 420 L 1133 416 Z" fill="#000000" stroke="#000000" stroke-miterlimit="10" pointer-events="none"/><path d="M 1140 414 L 1512 152" fill="none" stroke="#000000" stroke-miterlimit="10" pointer-events="none"/><path d="M 1516 149 L 1512 156 L 1512 152 L 1508 150 Z" fill="#000000" stroke="#000000" stroke-miterlimit="10" pointer-events="none"/><path d="M 1148 414 L 1501 216" fill="none" stroke="#000000" stroke-miterlimit="10" pointer-events="none"/><path d="M 1505 214 L 1501 220 L 1501 216 L 1498 214 Z" fill="#000000" stroke="#000000" stroke-miterlimit="10" pointer-events="none"/><ellipse cx="1144" cy="88" rx="5" ry="5" fill="#080808" stroke="#000000" pointer-events="none"/><path d="M 779 145 L 1134 85" fill="none" stroke="#000000" stroke-miterlimit="10" pointer-events="none"/><path d="M 1139 84 L 1133 89 L 1134 85 L 1132 82 Z" fill="#000000" stroke="#000000" stroke-miterlimit="10" pointer-events="none"/><path d="M 783 287 L 1135 94" fill="none" stroke="#000000" stroke-miterlimit="10" pointer-events="none"/><path d="M 1139 92 L 1135 98 L 1135 94 L 1132 92 Z" fill="#000000" stroke="#000000" stroke-miterlimit="10" pointer-events="none"/><path d="M 1140 84 L 1509 337" fill="none" stroke="#000000" stroke-miterlimit="10" pointer-events="none"/><path d="M 1514 340 L 1506 339 L 1509 337 L 1510 333 Z" fill="#000000" stroke="#000000" stroke-miterlimit="10" pointer-events="none"/><path d="M 1140 91 L 1512 957" fill="none" stroke="#000000" stroke-miterlimit="10" pointer-events="none"/><path d="M 1514 962 L 1508 957 L 1512 957 L 1514 954 Z" fill="#000000" stroke="#000000" stroke-miterlimit="10" pointer-events="none"/><ellipse cx="1144" cy="668" rx="5" ry="5" fill="#080808" stroke="#000000" pointer-events="none"/><path d="M 771 525 L 1135 669" fill="none" stroke="#000000" stroke-miterlimit="10" pointer-events="none"/><path d="M 1139 671 L 1132 671 L 1135 669 L 1134 665 Z" fill="#000000" stroke="#000000" stroke-miterlimit="10" pointer-events="none"/><path d="M 771 152 L 1141 657" fill="none" stroke="#000000" stroke-miterlimit="10" pointer-events="none"/><path d="M 1144 662 L 1137 658 L 1141 657 L 1143 654 Z" fill="#000000" stroke="#000000" stroke-miterlimit="10" pointer-events="none"/><path d="M 1140 671 L 1509 959" fill="none" stroke="#000000" stroke-miterlimit="10" pointer-events="none"/><path d="M 1514 962 L 1506 961 L 1509 959 L 1510 955 Z" fill="#000000" stroke="#000000" stroke-miterlimit="10" pointer-events="none"/><ellipse cx="1518" cy="664" rx="5" ry="5" fill="#080808" stroke="#000000" pointer-events="none"/><path d="M 1148 665 L 1508 664" fill="none" stroke="#000000" stroke-miterlimit="10" pointer-events="none"/><path d="M 1513 664 L 1506 668 L 1508 664 L 1506 661 Z" fill="#000000" stroke="#000000" stroke-miterlimit="10" pointer-events="none"/><ellipse cx="1147" cy="792" rx="5" ry="5" fill="#080808" stroke="#000000" pointer-events="none"/><path d="M 771 724 L 1137 787" fill="none" stroke="#000000" stroke-miterlimit="10" pointer-events="none"/><path d="M 1142 788 L 1135 790 L 1137 787 L 1136 783 Z" fill="#000000" stroke="#000000" stroke-miterlimit="10" pointer-events="none"/><path d="M 771 464 L 1139 784" fill="none" stroke="#000000" stroke-miterlimit="10" pointer-events="none"/><path d="M 1143 787 L 1135 785 L 1139 784 L 1140 780 Z" fill="#000000" stroke="#000000" stroke-miterlimit="10" pointer-events="none"/><path d="M 768 284 L 1138 787" fill="none" stroke="#000000" stroke-miterlimit="10" pointer-events="none"/><path d="M 1141 792 L 1134 788 L 1138 787 L 1140 784 Z" fill="#000000" stroke="#000000" stroke-miterlimit="10" pointer-events="none"/><path d="M 1151 788 L 1509 535" fill="none" stroke="#000000" stroke-miterlimit="10" pointer-events="none"/><path d="M 1514 532 L 1510 539 L 1509 535 L 1506 533 Z" fill="#000000" stroke="#000000" stroke-miterlimit="10" pointer-events="none"/><path d="M 1151 788 L 1509 597" fill="none" stroke="#000000" stroke-miterlimit="10" pointer-events="none"/><path d="M 1513 594 L 1509 601 L 1509 597 L 1506 595 Z" fill="#000000" stroke="#000000" stroke-miterlimit="10" pointer-events="none"/><ellipse cx="1149" cy="874" rx="5" ry="5" fill="#080808" stroke="#000000" pointer-events="none"/><path d="M 771 731 L 1139 868" fill="none" stroke="#000000" stroke-miterlimit="10" pointer-events="none"/><path d="M 1144 870 L 1137 870 L 1139 868 L 1139 864 Z" fill="#000000" stroke="#000000" stroke-miterlimit="10" pointer-events="none"/><path d="M 771 464 L 1141 865" fill="none" stroke="#000000" stroke-miterlimit="10" pointer-events="none"/><path d="M 1145 869 L 1137 866 L 1141 865 L 1143 862 Z" fill="#000000" stroke="#000000" stroke-miterlimit="10" pointer-events="none"/><path d="M 771 525 L 1141 866" fill="none" stroke="#000000" stroke-miterlimit="10" pointer-events="none"/><path d="M 1145 869 L 1137 867 L 1141 866 L 1142 862 Z" fill="#000000" stroke="#000000" stroke-miterlimit="10" pointer-events="none"/><path d="M 1153 877 L 1507 1021" fill="none" stroke="#000000" stroke-miterlimit="10" pointer-events="none"/><path d="M 1512 1023 L 1504 1024 L 1507 1021 L 1507 1017 Z" fill="#000000" stroke="#000000" stroke-miterlimit="10" pointer-events="none"/><path d="M 1153 870 L 1511 294" fill="none" stroke="#000000" stroke-miterlimit="10" pointer-events="none"/><path d="M 1514 290 L 1513 298 L 1511 294 L 1507 294 Z" fill="#000000" stroke="#000000" stroke-miterlimit="10" pointer-events="none"/></g></svg>